<svg xmlns="http://www.w3.org/2000/svg"  id="icon-logo"  fill="none">
 
<path d="M0.336 23.381h3.022c1.787 0 2.903 0.828 2.892 2.096-0.005 0.546 0 1.227-0.678 1.85 0.469 0 1.008 0.664 1.008 1.98 0 1.674-0.939 2.57-2.414 2.57h-3.83v-8.497zM2.19 25.202v1.543h1.463c0.541 0 0.671-0.476 0.671-0.724v-0.059c0-0.484-0.182-0.736-0.671-0.736l-1.463-0.023zM2.19 28.35v1.825h1.716c0.41 0 0.565-0.437 0.565-0.823v-0.127c0-0.583-0.266-0.864-0.756-0.864l-1.525-0.011z"></path>
<path d="M8.713 28.101l-2.805-4.72h2.439l1.354 2.769 1.488-2.769h2.22l-2.72 4.72v3.776h-1.976v-3.776z"></path>
<path d="M27.809 26.127c0 1.716-1.313 3.096-4.176 3.096v2.652h-2.001v-8.481h3.039c2.348 0 3.138 1.018 3.138 2.733zM23.633 27.639h0.698c0.901 0 1.607-0.524 1.607-1.512s-0.574-1.257-1.607-1.257h-0.698v2.768z"></path>
<path d="M0.336 22.237v-11.12h2.83l3.244 5.949 3.421-5.949h2.83v11.12h-2.83v-5.080l-3.421 5.080-3.244-5.080v5.080h-2.83z"></path>
<path d="M16.144 11.117h3.852l2.81 11.12h-2.501l-0.658-2.068h-3.243l-0.609 2.068h-2.55l2.899-11.12zM18.070 14.052l-1.274 4.072h2.455l-1.18-4.072z"></path>
<path d="M32.718 11.118h7.935v2.513h-5.408v1.75h5.408v2.45h-5.408v2.084h5.408v2.322h-7.935v-11.119z"></path>
<path d="M28.25 23.394h6.052v1.917h-4.125v1.335h4.125v1.869h-4.125v1.59h4.125v1.771h-6.052v-8.481z"></path>
<path d="M16.107 23.394h2.938l2.144 8.481h-1.907l-0.502-1.577h-2.474l-0.464 1.577h-1.946l2.212-8.481zM17.576 25.632l-0.972 3.105h1.873l-0.901-3.105z"></path>
<path d="M26.957 22.253l-3.602-0.010v-11.12l3.602-0.035c3.375 0 5.177 1.633 5.177 5.666 0 3.094-1.73 5.498-5.177 5.498zM25.835 19.848h1.122c1.575 0 2.536-1.002 2.536-3.094s-0.75-3.067-2.536-3.067h-1.122v6.161z"></path>
<path d="M35.023 25.752c0-1.323 0.948-2.284 2.483-2.415 1.28-0.11 2.447 0.354 3.332 0.941l-0.809 1.797c0 0-0.905-0.524-1.437-0.692-0.417-0.132-0.972-0.008-1.086 0.275s-0.093 0.572 0.276 0.757c0.029 0.015 0.062 0.031 0.098 0.049 0.204 0.1 0.511 0.253 0.859 0.464h0.006c0 0 0.748 0.402 1.333 1.049 0.047 0.049 0.095 0.1 0.14 0.151h-0.010c0.313 0.386 0.552 0.846 0.552 1.351 0 1.322-1.093 2.375-2.627 2.506-1.28 0.11-2.451-0.474-3.336-1.061l0.625-1.8c0 0 1.237 0.555 1.769 0.724 0.417 0.132 0.972 0.008 1.086-0.275s0.128-0.484-0.276-0.757c-0.126-0.085-0.277-0.173-0.448-0.273-0.128-0.074-0.266-0.155-0.413-0.246-0.16-0.084-2.118-1.139-2.118-2.547h0.002z"></path>
<path d="M44.023 12.943v-1.854h0.445l0.555 0.992 0.53-0.992h0.527v1.854h-0.445v-0.915l-0.612 0.915-0.527-0.915v0.915h-0.472z"></path>
<path d="M42.17 11.479v-0.39h1.685v0.39h-0.614v1.464h-0.451v-1.464h-0.62z"></path>
<path d="M9.571 0.854l-0.956-0.158c-0.056-0.009-0.065-0.081-0.014-0.103 2.221-0.944 4.564-0.557 6.271 0.925 0.061 0.053 0.045 0.149-0.028 0.185-0.307 0.157-0.649 0.384-0.802 0.49-0.047 0.033-0.112 0.027-0.153-0.012-1.094-1.013-3.118-1.151-4.319-1.328v0.001z"></path>
<path d="M31.419 0.854l0.956-0.158c0.056-0.009 0.065-0.081 0.014-0.103-2.222-0.944-4.565-0.557-6.272 0.925-0.061 0.053-0.045 0.149 0.028 0.185 0.307 0.157 0.649 0.384 0.802 0.49 0.047 0.033 0.112 0.027 0.153-0.012 1.094-1.013 3.118-1.151 4.319-1.328v0.001z"></path>
<path d="M20.552 1.668c-1.536 0-2.395-0.377-3.907-0.399-0.051-0.001-0.076-0.060-0.039-0.093 1.078-0.954 3.156-1.176 3.878-1.176 0.607 0 2.618 0.176 3.789 1.169 0.040 0.034 0.013 0.095-0.040 0.094-1.515-0.024-1.526 0.404-3.683 0.404l0.001 0.001z"></path>
<path d="M1.506 9.458h-0.935c-0.164 0-0.276-0.16-0.221-0.309 0.103-0.275 0.237-0.667 0.254-0.894 0.017-0.216 0.009-0.396 0.002-0.558-0.014-0.328-0.025-0.588 0.173-0.951 0.163-0.298 0.342-0.537 0.525-0.78 0.229-0.305 0.464-0.617 0.677-1.063 0.162-0.34 0.267-0.824 0.379-1.342 0.103-0.477 0.213-0.983 0.379-1.432 0.347-0.934 0.47-1.267 1.319-1.406 0.829-0.136 1.777 0.126 2.738 0.393 0.551 0.153 1.107 0.307 1.649 0.387 0.341 0.051 0.687 0.095 1.031 0.139 1.441 0.184 2.847 0.364 3.729 1.021 0.104 0.078 0.104 0.226 0.025 0.329-0.33 0.429-0.605 1.193-0.658 2.112-0.038 0.66 0.123 1.482 0.42 2.498 0.171 0.586-0.133 1.22-0.334 1.641-0.013 0.027-0.025 0.053-0.038 0.079-0.039 0.082-0.123 0.136-0.216 0.136h-7.194c-0.127 0-0.23-0.1-0.236-0.223-0.051-1.052-0.468-2.15-1.544-2.15s-1.558 1.31-1.689 2.171c-0.017 0.114-0.116 0.202-0.236 0.202v-0.001zM3.325 5.796v-0.001c0.395 0.412 1.84 0.6 2.625-0.203 0.917-0.938 0.978-2.912 0.058-3.442-0.365-0.21-0.998-0.263-0.998-0.263-0.919 0-1.108 0.726-1.308 1.494-0.051 0.195-0.102 0.393-0.166 0.583-0.059 0.174-0.139 0.338-0.217 0.496-0.228 0.466-0.431 0.881 0.007 1.336zM7.956 6.865c0.881 0.622 2.297 0.458 2.915-0.023 0.812-0.633 0.993-2.752 0.304-3.37-0.743-0.667-1.551-0.74-2.423-0.336-0.986 0.457-1.41 3.297-0.796 3.73h0z"></path>
<path d="M39.483 9.458h0.934c0.164 0 0.276-0.16 0.221-0.309-0.103-0.275-0.237-0.667-0.254-0.894-0.017-0.216-0.010-0.396-0.002-0.558 0.014-0.328 0.025-0.588-0.173-0.951-0.163-0.298-0.342-0.537-0.525-0.78-0.229-0.305-0.464-0.617-0.677-1.063-0.162-0.34-0.267-0.824-0.379-1.342-0.103-0.477-0.213-0.983-0.379-1.432-0.347-0.934-0.47-1.267-1.319-1.406-0.829-0.136-1.777 0.126-2.738 0.393-0.551 0.153-1.108 0.307-1.649 0.387-0.341 0.051-0.687 0.095-1.031 0.139-1.441 0.184-2.847 0.364-3.729 1.021-0.104 0.078-0.104 0.226-0.025 0.329 0.33 0.429 0.605 1.193 0.658 2.112 0.038 0.66-0.123 1.482-0.42 2.498-0.155 0.532 0.080 1.102 0.276 1.517 0.097 0.205 0.311 0.338 0.544 0.338h6.963c0.128 0 0.23-0.1 0.236-0.223 0.051-1.052 0.468-2.15 1.544-2.15s1.559 1.31 1.689 2.171c0.017 0.114 0.116 0.202 0.236 0.202v-0.001zM37.665 5.796v-0.001c-0.395 0.412-1.84 0.6-2.625-0.203-0.916-0.938-0.978-2.912-0.057-3.442 0.365-0.21 0.998-0.263 0.998-0.263 0.919 0 1.108 0.726 1.308 1.494 0.051 0.195 0.102 0.393 0.166 0.583 0.059 0.174 0.139 0.338 0.217 0.496 0.228 0.466 0.431 0.881-0.007 1.336zM33.034 6.865c-0.881 0.622-2.297 0.458-2.915-0.023-0.812-0.633-0.993-2.752-0.304-3.37 0.743-0.667 1.551-0.74 2.423-0.336 0.986 0.457 1.41 3.297 0.796 3.73h-0.001z"></path>
<path d="M18.18 9.457v0.001c0.104 0 0.197-0.068 0.231-0.164 0.169-0.469 0.758-1.786 2.064-1.786s1.895 1.317 2.063 1.786c0.034 0.096 0.126 0.164 0.231 0.164h4.698c0.093 0 0.148-0.103 0.098-0.179-0.598-0.919-0.452-1.524-0.258-2.329 0.136-0.564 0.295-1.226 0.239-2.162-0.085-1.406-0.912-2.291-2.458-2.616-0.803-0.168-1.841-0.010-2.815 0.139-0.619 0.095-1.212 0.185-1.703 0.185-0.659 0-1.338-0.109-2.002-0.215-0.959-0.154-1.884-0.303-2.661-0.109-1.498 0.373-2.241 1.149-2.516 2.698-0.103 0.804 0.068 1.416 0.226 1.985 0.214 0.768 0.405 1.456-0.127 2.432-0.041 0.076 0.014 0.171 0.103 0.171h4.586zM17.509 7.262c-0.918 0.522-2.113 0.514-2.576-0.517-0.526-1.172-0.015-2.829 1.466-3.239 1.551-0.429 3.051-0.22 2.995 0.911-0.042 0.84-0.811 2.235-1.885 2.845v0zM26.089 6.745c-0.463 1.032-1.658 1.039-2.576 0.517-1.074-0.61-1.843-2.005-1.885-2.845-0.056-1.13 1.444-1.34 2.995-0.911 1.48 0.41 1.991 2.067 1.466 3.239v-0z"></path>

</svg>